<mxfile host="app.diagrams.net" agent="Mozilla/5.0 (Macintosh; Intel Mac OS X 10_15_7) AppleWebKit/537.36 (KHTML, like Gecko) Chrome/133.0.0.0 Safari/537.36" version="24.9.1">
  <diagram name="第 1 页" id="P-Ki47FXVeTSSFG6zqav">
    <mxGraphModel dx="1242" dy="785" grid="0" gridSize="10" guides="1" tooltips="1" connect="1" arrows="1" fold="1" page="0" pageScale="1" pageWidth="827" pageHeight="1169" math="0" shadow="0">
      <root>
        <mxCell id="0" />
        <mxCell id="1" parent="0" />
        <mxCell id="6YByduiW3RNkJjxguIij-31" value="" style="whiteSpace=wrap;html=1;fillColor=#f8cecc;strokeColor=#b85450;" vertex="1" parent="1">
          <mxGeometry x="419" y="773" width="386" height="83" as="geometry" />
        </mxCell>
        <mxCell id="6YByduiW3RNkJjxguIij-29" value="" style="whiteSpace=wrap;html=1;fillColor=#fff2cc;strokeColor=#d6b656;" vertex="1" parent="1">
          <mxGeometry x="419" y="560" width="386" height="205" as="geometry" />
        </mxCell>
        <mxCell id="6YByduiW3RNkJjxguIij-27" value="" style="whiteSpace=wrap;html=1;fillColor=#ffe6cc;strokeColor=#d79b00;" vertex="1" parent="1">
          <mxGeometry x="419" y="306.5" width="385" height="247" as="geometry" />
        </mxCell>
        <mxCell id="6YByduiW3RNkJjxguIij-17" style="edgeStyle=orthogonalEdgeStyle;rounded=0;orthogonalLoop=1;jettySize=auto;html=1;entryX=0.5;entryY=0;entryDx=0;entryDy=0;" edge="1" parent="1" source="6YByduiW3RNkJjxguIij-3" target="6YByduiW3RNkJjxguIij-4">
          <mxGeometry relative="1" as="geometry" />
        </mxCell>
        <mxCell id="6YByduiW3RNkJjxguIij-3" value="&lt;font style=&quot;font-size: 24px;&quot; face=&quot;宋体&quot;&gt;开始&lt;/font&gt;" style="rounded=0;whiteSpace=wrap;html=1;fontFamily=宋体;" vertex="1" parent="1">
          <mxGeometry x="470" y="159" width="160" height="50" as="geometry" />
        </mxCell>
        <mxCell id="6YByduiW3RNkJjxguIij-18" style="edgeStyle=orthogonalEdgeStyle;rounded=0;orthogonalLoop=1;jettySize=auto;html=1;entryX=0.5;entryY=0;entryDx=0;entryDy=0;" edge="1" parent="1" source="6YByduiW3RNkJjxguIij-4" target="6YByduiW3RNkJjxguIij-7">
          <mxGeometry relative="1" as="geometry" />
        </mxCell>
        <mxCell id="6YByduiW3RNkJjxguIij-4" value="&lt;font style=&quot;font-size: 24px;&quot; face=&quot;宋体&quot;&gt;初始化&lt;/font&gt;" style="rounded=0;whiteSpace=wrap;html=1;fontFamily=宋体;" vertex="1" parent="1">
          <mxGeometry x="470" y="241" width="160" height="50" as="geometry" />
        </mxCell>
        <mxCell id="6YByduiW3RNkJjxguIij-19" style="edgeStyle=orthogonalEdgeStyle;rounded=0;orthogonalLoop=1;jettySize=auto;html=1;entryX=0.5;entryY=0;entryDx=0;entryDy=0;" edge="1" parent="1" source="6YByduiW3RNkJjxguIij-7" target="6YByduiW3RNkJjxguIij-9">
          <mxGeometry relative="1" as="geometry" />
        </mxCell>
        <mxCell id="6YByduiW3RNkJjxguIij-7" value="&lt;span style=&quot;font-size: 24px;&quot;&gt;读取数据&lt;/span&gt;" style="rounded=0;whiteSpace=wrap;html=1;fontFamily=宋体;" vertex="1" parent="1">
          <mxGeometry x="470" y="323" width="160" height="50" as="geometry" />
        </mxCell>
        <mxCell id="6YByduiW3RNkJjxguIij-20" style="edgeStyle=orthogonalEdgeStyle;rounded=0;orthogonalLoop=1;jettySize=auto;html=1;entryX=0.5;entryY=0;entryDx=0;entryDy=0;" edge="1" parent="1" source="6YByduiW3RNkJjxguIij-9" target="6YByduiW3RNkJjxguIij-10">
          <mxGeometry relative="1" as="geometry" />
        </mxCell>
        <mxCell id="6YByduiW3RNkJjxguIij-9" value="&lt;span style=&quot;font-size: 24px;&quot;&gt;数据滤波&lt;/span&gt;" style="rounded=0;whiteSpace=wrap;html=1;fontFamily=宋体;" vertex="1" parent="1">
          <mxGeometry x="470" y="405" width="160" height="50" as="geometry" />
        </mxCell>
        <mxCell id="6YByduiW3RNkJjxguIij-21" style="edgeStyle=orthogonalEdgeStyle;rounded=0;orthogonalLoop=1;jettySize=auto;html=1;entryX=0.5;entryY=0;entryDx=0;entryDy=0;" edge="1" parent="1" source="6YByduiW3RNkJjxguIij-10" target="6YByduiW3RNkJjxguIij-11">
          <mxGeometry relative="1" as="geometry" />
        </mxCell>
        <mxCell id="6YByduiW3RNkJjxguIij-10" value="&lt;span style=&quot;font-size: 24px;&quot;&gt;倾斜解算&lt;/span&gt;" style="rounded=0;whiteSpace=wrap;html=1;fontFamily=宋体;" vertex="1" parent="1">
          <mxGeometry x="470" y="487" width="160" height="50" as="geometry" />
        </mxCell>
        <mxCell id="6YByduiW3RNkJjxguIij-15" style="edgeStyle=orthogonalEdgeStyle;rounded=0;orthogonalLoop=1;jettySize=auto;html=1;entryX=1;entryY=0.5;entryDx=0;entryDy=0;" edge="1" parent="1" source="6YByduiW3RNkJjxguIij-11" target="6YByduiW3RNkJjxguIij-7">
          <mxGeometry relative="1" as="geometry">
            <Array as="points">
              <mxPoint x="771" y="609" />
              <mxPoint x="771" y="348" />
            </Array>
          </mxGeometry>
        </mxCell>
        <mxCell id="6YByduiW3RNkJjxguIij-16" value="&lt;font face=&quot;宋体&quot; style=&quot;font-size: 20px;&quot;&gt;否&lt;/font&gt;" style="edgeLabel;html=1;align=center;verticalAlign=middle;resizable=0;points=[];" vertex="1" connectable="0" parent="6YByduiW3RNkJjxguIij-15">
          <mxGeometry x="-0.8411" y="2" relative="1" as="geometry">
            <mxPoint as="offset" />
          </mxGeometry>
        </mxCell>
        <mxCell id="6YByduiW3RNkJjxguIij-22" style="edgeStyle=orthogonalEdgeStyle;rounded=0;orthogonalLoop=1;jettySize=auto;html=1;entryX=0.5;entryY=0;entryDx=0;entryDy=0;" edge="1" parent="1" source="6YByduiW3RNkJjxguIij-11" target="6YByduiW3RNkJjxguIij-12">
          <mxGeometry relative="1" as="geometry" />
        </mxCell>
        <mxCell id="6YByduiW3RNkJjxguIij-23" value="&lt;font style=&quot;font-size: 20px;&quot; face=&quot;宋体&quot;&gt;是&lt;/font&gt;" style="edgeLabel;html=1;align=center;verticalAlign=middle;resizable=0;points=[];" vertex="1" connectable="0" parent="6YByduiW3RNkJjxguIij-22">
          <mxGeometry x="-0.1786" relative="1" as="geometry">
            <mxPoint as="offset" />
          </mxGeometry>
        </mxCell>
        <mxCell id="6YByduiW3RNkJjxguIij-11" value="&lt;font style=&quot;font-size: 24px;&quot; face=&quot;宋体&quot;&gt;是否倾斜？&lt;/font&gt;" style="rhombus;whiteSpace=wrap;html=1;" vertex="1" parent="1">
          <mxGeometry x="460" y="569" width="180" height="80" as="geometry" />
        </mxCell>
        <mxCell id="6YByduiW3RNkJjxguIij-24" style="edgeStyle=orthogonalEdgeStyle;rounded=0;orthogonalLoop=1;jettySize=auto;html=1;entryX=0.5;entryY=0;entryDx=0;entryDy=0;" edge="1" parent="1" source="6YByduiW3RNkJjxguIij-12" target="6YByduiW3RNkJjxguIij-13">
          <mxGeometry relative="1" as="geometry" />
        </mxCell>
        <mxCell id="6YByduiW3RNkJjxguIij-12" value="&lt;span style=&quot;font-size: 24px;&quot;&gt;控制决策&lt;/span&gt;" style="rounded=0;whiteSpace=wrap;html=1;fontFamily=宋体;" vertex="1" parent="1">
          <mxGeometry x="470" y="705" width="160" height="50" as="geometry" />
        </mxCell>
        <mxCell id="6YByduiW3RNkJjxguIij-25" style="edgeStyle=orthogonalEdgeStyle;rounded=0;orthogonalLoop=1;jettySize=auto;html=1;" edge="1" parent="1" source="6YByduiW3RNkJjxguIij-13" target="6YByduiW3RNkJjxguIij-14">
          <mxGeometry relative="1" as="geometry" />
        </mxCell>
        <mxCell id="6YByduiW3RNkJjxguIij-13" value="&lt;span style=&quot;font-size: 24px;&quot;&gt;电机驱动&lt;/span&gt;" style="rounded=0;whiteSpace=wrap;html=1;fontFamily=宋体;" vertex="1" parent="1">
          <mxGeometry x="470" y="792" width="160" height="50" as="geometry" />
        </mxCell>
        <mxCell id="6YByduiW3RNkJjxguIij-26" style="edgeStyle=orthogonalEdgeStyle;rounded=0;orthogonalLoop=1;jettySize=auto;html=1;entryX=1;entryY=0.5;entryDx=0;entryDy=0;" edge="1" parent="1" source="6YByduiW3RNkJjxguIij-14" target="6YByduiW3RNkJjxguIij-12">
          <mxGeometry relative="1" as="geometry">
            <Array as="points">
              <mxPoint x="775" y="730" />
            </Array>
          </mxGeometry>
        </mxCell>
        <mxCell id="6YByduiW3RNkJjxguIij-14" value="&lt;span style=&quot;font-size: 24px;&quot;&gt;配重调节&lt;/span&gt;" style="rounded=0;whiteSpace=wrap;html=1;fontFamily=宋体;" vertex="1" parent="1">
          <mxGeometry x="691" y="792" width="105" height="50" as="geometry" />
        </mxCell>
        <mxCell id="6YByduiW3RNkJjxguIij-28" value="&lt;font style=&quot;font-size: 24px;&quot; face=&quot;宋体&quot;&gt;传感器层&lt;/font&gt;" style="text;html=1;align=center;verticalAlign=middle;whiteSpace=wrap;rounded=0;fillColor=#fff2cc;strokeColor=#d6b656;" vertex="1" parent="1">
          <mxGeometry x="292" y="415" width="119" height="30" as="geometry" />
        </mxCell>
        <mxCell id="6YByduiW3RNkJjxguIij-30" value="&lt;font style=&quot;font-size: 24px;&quot; face=&quot;宋体&quot;&gt;控制层&lt;/font&gt;" style="text;html=1;align=center;verticalAlign=middle;whiteSpace=wrap;rounded=0;fillColor=#fff2cc;strokeColor=#d6b656;" vertex="1" parent="1">
          <mxGeometry x="292" y="647.5" width="119" height="30" as="geometry" />
        </mxCell>
        <mxCell id="6YByduiW3RNkJjxguIij-32" value="&lt;font style=&quot;font-size: 24px;&quot; face=&quot;宋体&quot;&gt;执行层&lt;/font&gt;" style="text;html=1;align=center;verticalAlign=middle;whiteSpace=wrap;rounded=0;fillColor=#fff2cc;strokeColor=#d6b656;" vertex="1" parent="1">
          <mxGeometry x="292" y="799.5" width="119" height="30" as="geometry" />
        </mxCell>
      </root>
    </mxGraphModel>
  </diagram>
</mxfile>
